<svg xmlns="http://www.w3.org/2000/svg" width="58" height="50" fill="none"><g fill="#463530" clip-path="url(#a)"><path d="M15.795 42.425a23.816 23.816 0 0 1-.736-1.267l-.09.019c-.251.282-.642.496-1.172.642-.53.145-.989.259-1.376.341l-.04-.188-.144-.018-.15.179-.02-.094c-.31 0-.614-.18-.909-.543-.332-.388-.546-.735-.642-1.042.106-.088.152-.163.139-.226l-.06-.281c-.12.025-.167.019-.144-.019a1.51 1.51 0 0 0-.095-.225l.289.037c-.054-.25-.057-.413-.01-.489l.178-.48c.139.07.256.11.353.122l-.08-.376c.149-.032.212-.028.189.01.006.03.041-.026.104-.17l.07-.113c.208-.044.316-.198.322-.461a.381.381 0 0 1-.075-.132c-.013-.062-.038-.106-.075-.131l.264-.302.59-.076-.01-.047c-.035-.025-.057-.053-.064-.084-.013-.063.022-.12.104-.17a.532.532 0 0 0 .14-.226c-.074-.05-.087-.112-.04-.188l.218.15-.02-.094c.136-.094.19-.204.164-.329l.01-.395.198.056a.34.34 0 0 0 .144.019c.09-.02.125-.076.105-.17a1.653 1.653 0 0 0-.035-.385 3.119 3.119 0 0 0-.24-.685 5.505 5.505 0 0 0-.209-.545c.11-.514.144-.865.104-1.053-.027-.125-.074-.197-.14-.215-.073-.05-.123-.138-.15-.263-.019-.094-.014-.291.015-.592-.192-.025-.313-.08-.363-.168a3.033 3.033 0 0 1-.045-.433c.07-.113.093-.297.07-.554a8.698 8.698 0 0 0-.146-.902 8.696 8.696 0 0 0-.234-.883c-.06-.282-.133-.479-.22-.591a.7.7 0 0 1-.104-.273 1.474 1.474 0 0 1-.02-.535c.02-.2-.039-.401-.175-.601a1.33 1.33 0 0 1-.254-.535 3.653 3.653 0 0 1-.075-1.015c.053-.338.033-.58-.06-.723a.717.717 0 0 0-.478-.046c-.208.044-.41.12-.606.227-.165.1-.34.154-.526.16-.133-.037-.224-.099-.274-.186-.026-.126-.137-.135-.333-.028l.05.235c-.083.05-.18.104-.293.16l-.358.076-.626.134c-.215.013-.4.02-.556.02l-.14-.216.03-.3.08-.067.268-.057a2.828 2.828 0 0 1 .088-.902l.2.056.178-.038c-.063-.15-.106-.207-.13-.17l.115-.122c.182.125.315.162.398.112.076-.081.195-.107.357-.076l-.02-.094-.089.02c.093-.151.175-.202.248-.152.047-.075.048-.14.005-.197-.02-.094-.018-.16.005-.198.15.263.433.35.85.262.238-.051.473-.117.705-.2.226-.113.413-.185.562-.217a2.09 2.09 0 0 1-.13-1.052c.069-.407.1-.774.093-1.1l-.03-.14a.334.334 0 0 0-.14-.216.556.556 0 0 1-.094-.226c-.02-.094-.005-.244.044-.45l-.134.028-.074-.132c.129-.125.153-.376.073-.752a1.874 1.874 0 0 0-.134-.413l-.06-.282.358-.076-.05-.235c.023-.037.036-.122.04-.253-.103-.044-.162-.097-.175-.16-.013-.062-.008-.112.015-.15.053-.044.07-.113.05-.207-.02-.094-.122-.203-.304-.328.04-.107.064-.21.074-.31.033-.138.07-.26.11-.367a.948.948 0 0 1-.294-.281 2.164 2.164 0 0 0-.125-.367l.358-.076-.19-.45.25-.151c-.054-.25-.092-.357-.116-.32-.023.038-.077 0-.164-.112l-.02-.094a.824.824 0 0 1-.005-.244 1.48 1.48 0 0 0-.025-.338c-.12.025-.185.007-.199-.056l-.07-.329c.123-.157.144-.276.065-.357-.057-.119.038-.188.283-.207a3.541 3.541 0 0 1-.468-.883l.298-.357a.57.57 0 0 1-.299-.084.46.46 0 0 0-.228-.197c-.024.037-.249.15-.676.34l-1.495.661c-.576.22-1.108.432-1.595.634-.493.17-.808.302-.944.397-.54.245-1.06.503-1.564.774-.51.24-1.063.422-1.66.549a1.319 1.319 0 0 1-.308-.573c-.252-.306-.446-.706-.583-1.201a9.781 9.781 0 0 1-.28-1.315l.194-.188a.783.783 0 0 1 .532-.359.967.967 0 0 1 .323-.02l.313-.066a.382.382 0 0 0 .015-.15c-.014-.063-.009-.113.014-.15.057.118.103.19.14.215.036.025.041-.025.015-.15.069-.113.148-.18.238-.198.086.113.159.162.219.15.06-.013.175-.054.347-.123a.626.626 0 0 1-.07-.329l.462-.245.07.328c.358-.076.504-.123.438-.142-.073-.05-.034-.156.118-.32.053-.043.164-.034.333.028.163.03.3.018.413-.039.136-.094.238-.198.308-.31.092-.151.192-.27.298-.358l.11.516-.184.236a.382.382 0 0 1-.075-.132c-.013-.062-.04-.04-.08.066-.046.075-.067.195-.064.357.027.126.107.207.24.244.078-.213.174-.348.287-.405.136-.094.275-.173.417-.236.086.113.17.21.249.291.11.075.207.169.293.281.086-.181.146-.341.179-.48.026-.168.14-.29.342-.367.08.082.18.11.299.084a1.96 1.96 0 0 0 .516-.208.851.851 0 0 1 .671-.142c-.027-.126-.052-.17-.075-.132-.03.007.009-.034.115-.122a.428.428 0 0 0 .397.112.852.852 0 0 0 .417-.236c.16-.132.295-.226.408-.283.165.194.338.272.517.234a.969.969 0 0 0 .303-.114.826.826 0 0 1 .258-.104l-.07-.329c.156 0 .326-.004.512-.01.215-.013.373-.08.472-.199.086.113.118.188.095.226l.154.065-.09-.423c.12-.025.353-.026.7-.001.371-.014.569-.04.592-.077l-.015-.291.09-.02c.148-.031.236.016.263.141.05.088.139.069.268-.057l-.04-.188 1.41-.398.08.376a.99.99 0 0 0 .329-.217c.099-.12.26-.17.481-.152.057.12.145.166.264.14.15-.031.315-.132.497-.301.182-.17.314-.28.397-.33a.53.53 0 0 0 .13.169.56.56 0 0 1 .119.122c.195-.107.33-.202.407-.283.076-.082.215-.16.417-.236l.05.235c-.12.025-.255.12-.407.282l.536-.114c.14-.225.306-.392.502-.499a2.87 2.87 0 0 1 .695-.246c.239-.05.466-.082.681-.095.245-.02.472-.052.68-.096l.06.282.805-.171c.18-.038.35-.042.512-.011.156 0 .314.08.473.243l.08-.066c-.008-.031.01-.019.054.038.156 0 .465.064.93.195.486.093.77.18.85.26a1.44 1.44 0 0 0-.428.19l.02.094.358-.076c.046-.076.1-.12.159-.132a.527.527 0 0 0 .114-.123.444.444 0 0 1-.005.198.445.445 0 0 0 .085.178c.162.031.262.059.298.084.06-.013.128.087.204.3.176.094.282.3.319.62.03.288.095.52.194.694-.023.038-.064.063-.124.076-.03.006-.056.028-.08.066l.2.056a.53.53 0 0 1 .153.065 1.876 1.876 0 0 0-.009.837c.083.244.092.504.026.78-.083.344-.232.67-.447.978l-.555.903c-.156 0-.249.004-.279.01-.03.007-.06-.068-.094-.225.063-.144.114-.27.154-.376.069-.113.135-.242.198-.386.086.113.111.156.075.132-.007-.032.026-.022.099.027l-.04-.187c.046-.076.051-.126.015-.15-.013-.063-.009-.114.015-.151l.372-.227-.338-.271c.182-.17.241-.477.178-.922-.063-.444-.088-.783-.075-1.014l-.045.01c-.06.012-.126-.007-.199-.057l-.219-.15a.444.444 0 0 0 .005-.197.444.444 0 0 1 .005-.197 2.36 2.36 0 0 1-1.03-.223 4.478 4.478 0 0 0-1.003-.327c-.222-.018-.56.005-1.014.068-.424.058-.92.147-1.486.267-.924.196-1.856.427-2.797.693-.91.259-1.553.46-1.927.606-.196.107-.499.22-.91.34a6.902 6.902 0 0 0-1.142.341c-.351.108-.581.271-.69.49a3.849 3.849 0 0 0-.108 1.692c.12.564.162 1.128.126 1.692-.004.131-.002.507.006 1.127 0 .59.002 1.26.006 2.011.028.714.041 1.366.042 1.955 0 .589.017.961.05 1.118l-.109-.075-.01-.047c-.043-.056-.07-.034-.08.066l.04.188c.067.018.127.153.18.403.067.314.108.73.126 1.25.046.514.09.864.13 1.052l.511-.01.03.14a.489.489 0 0 0 .234 0c.15-.032.306-.098.472-.199l.279.432.248-.151c.076-.082.155-.148.238-.198.067.019.164.113.294.281.122-.157.243-.248.362-.273.12-.025.207.021.264.14a.43.43 0 0 0 .363.169c.155 0 .256-.039.303-.114.046-.075.198-.091.457-.048l.06.282a2.76 2.76 0 0 1 .437-.142l.09-.02c.06-.012.152-.015.278-.01l.1.47.134-.028c.07-.113.193-.189.372-.227.066.019.15.116.249.291a1.19 1.19 0 0 1 .258-.104l.239-.198c.04.188.081.31.124.366.037.025.133.038.288.037.033-.138.053-.19.06-.16.03-.006.1-.038.213-.094.322.193.733.368 1.233.523.494.124.961.27 1.402.438.47.162.776.425.915.788l.09-.02-.04-.187c.146.1.258.19.338.271.08.082.162.179.249.291.218-.145.402-.233.551-.264.15-.032.325-.086.527-.161-.01-.195.038-.336.143-.424.014.063.057.12.13.17-.027-.126-.017-.226.03-.301l.04.187.129.17c.046-.076.064-.21.054-.405l-.025.103c-.016.07-.046.076-.09.02l-.03-.142.07-.112.417-.236c.05.087.097.16.14.215a.306.306 0 0 1 .164.113l.248-.151a9.721 9.721 0 0 1 0-.442c.003-.131.106-.235.308-.31.169.062.246.061.233-.001a.75.75 0 0 1 .094-.217c.146.1.249.144.309.131.149-.031.245-.166.288-.404.072-.245.278-.305.616-.18l-.05-.235.492-.105c.152.426.038.843-.342 1.25-.358.371-.811.73-1.36 1.075-.527.309-1.01.607-1.446.897-.437.289-.659.565-.665.828.334.256.555.635.662 1.136.126.594.092 1.24-.103 1.936-.165.69-.375 1.24-.63 1.655.03.288-.131.699-.485 1.232-.325.527-.761 1.111-1.31 1.751a33.684 33.684 0 0 1-1.659 1.874l-1.584 1.564c-.463.459-.79.757-.978.895a21.59 21.59 0 0 0-1.142.783c-.348.27-.71.543-1.088.82a3.086 3.086 0 0 1-.72.35c-.261.088-.385.31-.372.668-.023.037-.021.119.005.244.027.125.072.263.135.413.07.181.13.316.18.404a.825.825 0 0 1-.498.302Zm-.723-8.24c.027-.17.103-.25.229-.245l.357-.076c-.013-.357.031-.661.134-.912.086.113.144.166.174.16.053-.044.142-.063.268-.058-.003-.162.147-.407.452-.734.334-.332.557-.527.67-.584l-.05-.235c.209-.044.363-.126.462-.245.13-.126.243-.248.342-.367l.204.3c-.036-.32.075-.458.333-.414l-.05-.235.358-.076c.095-.577.41-1.004.943-1.28.056.118.07.18.04.187l.199.056a.61.61 0 0 1 .292-.602c.249-.15.482-.299.7-.443a.854.854 0 0 0 .363-.715c.066.018.106.059.12.121.036.026.065.02.089-.018.288-.258.451-.44.491-.547.07-.113.209-.191.417-.236l.224-.047c.119-.026.242-.035.368-.03l.084-.263c-.014-.062-.038-.106-.075-.13l-.13-.17c.133.037.272-.041.418-.236a1.137 1.137 0 0 0-.303-.328 1.099 1.099 0 0 1-.214-.347c-.216.013-.367-.037-.453-.15a1.93 1.93 0 0 0-.214-.347c-.566.12-1.073.081-1.52-.118a7.748 7.748 0 0 0-1.457-.476.544.544 0 0 0-.313.067.544.544 0 0 1-.313.066 62.515 62.515 0 0 0-2.679-.068 17.724 17.724 0 0 0-2.693.081c.096.307.133.626.11.959 0 .294-.01.607-.034.94-.023.037-.005.197.055.478l.2.94.1.47c.033.156.045.284.035.384-.01.395.032.959.126 1.692.093.732.202 1.462.325 2.188.116.695.233 1.243.35 1.644l.088-.019a.443.443 0 0 1 .229-.245c.027.125.025.191-.005.198-.03.006.022.028.154.065Zm.382 3.993c.159-.132.284-.273.377-.424a4.18 4.18 0 0 1 .377-.424c.086.113.126.153.12.122-.007-.031.056-.028.188.01l-.149-.264.09-.019.174.16a.38.38 0 0 0 .014-.15c-.013-.063-.008-.114.015-.151a.72.72 0 0 0 .234 0 .489.489 0 0 1 .233-.001.71.71 0 0 1 .01-.395c.086.112.159.162.219.15l.268-.057.03-.301c.01-.1.049-.207.118-.32.014.063.057.12.13.17-.027-.126-.017-.226.03-.302l.129.17c.033-.139.034-.205.005-.198-.03.006.011-.02.124-.076l.298.084a.67.67 0 0 1 .079-.508l.07.33.268-.058a1.535 1.535 0 0 1-.11-.516.49.49 0 0 0 .234 0c.149-.033.28-.077.392-.133.057.119.07.181.04.187-.006-.03.038-.04.134-.028a.99.99 0 0 1 0-.442l.402-.085-.07-.329.626-1.016c.096.012.177.027.243.046l.18-.038c.089-.019.201-.223.337-.612.251.012.475-.035.67-.142.027-.17.041-.32.045-.451a9.87 9.87 0 0 1 0-.442c.185-.007.304-.032.357-.076.076-.082.132-.11.169-.085l-.02-.094.035-.056c.046-.076.062-.145.05-.207a.948.948 0 0 1-.016-.292c.12-.025.187-.072.204-.141l.119-.32.298.084c.06-.013.152-.016.278-.01l-.04-.188c-.132-.037-.18-.043-.144-.018.06-.013.076-.082.05-.207.105-.088.181-.17.228-.245a.37.37 0 0 1 .303-.114c-.017-.225.006-.41.069-.554.056-.176.076-.376.059-.602l.327-.658c.11-.22.152-.458.129-.715a.952.952 0 0 1-.577-.074 9.971 9.971 0 0 1-2.035 1.857 7.913 7.913 0 0 0-1.971 1.94l-1.073.67c-.11.22-.336.546-.68.979a8.97 8.97 0 0 1-1.107 1.168c-.394.345-.714.528-.959.547l.07.329-.224.047.05.235a2.396 2.396 0 0 0-.615.622 4.161 4.161 0 0 1-.527.603l.22 1.033a.761.761 0 0 0-.03.3c.027.126.087.26.18.404.116.106.199.203.249.29Zm-2.549 1.425c.329-.07.527-.161.597-.274.099-.12.187-.22.263-.301.106-.088.288-.11.546-.067l-.03-.141a.803.803 0 0 1 .02-.348.783.783 0 0 0-.11-.517c-.063-.15-.128-.234-.194-.253-.036-.025-.093-.144-.17-.357l-.312.067c-.003.131-.02.2-.05.207-.006-.032-.023.037-.05.207l-.56.217c.046.22-.022.414-.204.583a6.177 6.177 0 0 0-.556.462c-.182.17-.258.398-.228.687l.179-.038c.149-.032.301-.048.457-.049l.402-.085ZM27.114 37.947a.515.515 0 0 1-.282-.006 4.723 4.723 0 0 1-.268-.128 2.455 2.455 0 0 1-.511-.46c-.135-.174-.205-.336-.21-.485a.388.388 0 0 0-.015-.195l-.021-.101c-.052-.033-.07-.056-.055-.068a.3.3 0 0 0 .035-.087c.051-.01.059-.06.022-.15-.032-.064-.037-.213-.015-.446a3.06 3.06 0 0 1 .17-.711c.032-.095.086-.221.16-.378.07-.165.152-.328.242-.488.098-.17.188-.309.273-.415.175-.223.34-.407.496-.555.164-.15.335-.266.513-.348.178-.081.366-.143.561-.185a.669.669 0 0 1 .541.097c.214.042.375.127.482.255.115.125.21.299.284.521.08.248.12.565.123.953 0 .379-.119.845-.357 1.398-.149.35-.307.63-.475.842-.169.212-.361.416-.578.612-.153.156-.33.269-.529.338-.198.068-.394.132-.586.19Zm.974-1.82c.153-.2.248-.406.283-.616.044-.212.085-.459.123-.74a.555.555 0 0 0 .01-.267 1.582 1.582 0 0 0-.06-.345c-.034-.116-.078-.177-.132-.183-.09-.043-.169-.04-.238.01a1.233 1.233 0 0 0-.259.228c-.21.265-.397.56-.56.886-.155.315-.233.68-.234 1.095.02.216.075.372.166.467.099.085.224.089.377.013.16-.087.334-.27.524-.548Zm2.262.008a1.55 1.55 0 0 1 .009-.332c.014-.145.03-.276.05-.395.026-.129.044-.212.053-.25.066-.234.116-.46.15-.679.042-.22.073-.43.093-.628l.033-.285c.024-.137.045-.27.062-.397.016-.135.018-.228.008-.28-.013-.226.026-.397.117-.514a.87.87 0 0 1 .366-.289.708.708 0 0 1 .302.042c.086.026.178.063.278.113.084.061.14.16.17.294.026.127.026.312-.003.556-.015.136-.045.31-.089.522-.037.202-.08.4-.127.596a15.591 15.591 0 0 0-.197 1.206c-.035.254-.061.467-.078.638-.013.108.035.164.142.168.09.007.181-.008.271-.044.099-.039.195-.086.29-.142a9.297 9.297 0 0 0 .577-.426c.005-.063.013-.149.026-.257.02-.11.045-.265.074-.466.037-.202.077-.475.12-.819a19.836 19.836 0 0 1 .097-.735c.014-.1.025-.177.031-.231l.022-.084a1.697 1.697 0 0 1 .044-.737c.066-.234.168-.402.307-.502.124-.044.217-.068.278-.072.068-.015.148.004.239.055.199.099.319.184.36.254.05.06.09.17.124.33a.578.578 0 0 0-.033.22.8.8 0 0 1-.059.29c-.036.078-.065.15-.087.217a.305.305 0 0 0-.011.134l-.164.988c-.03.191-.055.35-.072.478l-.046.287.15-.045c.112-.023.227-.044.348-.06.12-.026.272 0 .457.074.023-.014.062.022.116.108.062.084.117.173.164.27.054.085.087.135.099.15.012.183.001.384-.032.602-.036.21-.084.424-.145.64-.05.222-.112.433-.185.634a.726.726 0 0 1-.083.176 6.84 6.84 0 0 1-.108.248c-.084.23-.217.36-.397.389-.172.028-.35-.054-.533-.244a1.7 1.7 0 0 1-.065-.37 4.237 4.237 0 0 1 .033-.536c.005-.063.023-.163.056-.303.041-.14.078-.28.11-.42.04-.15.054-.25.044-.3a.29.29 0 0 1-.056.051.34.34 0 0 0-.079.07.96.96 0 0 1-.144.136c-.061.049-.121.101-.18.158a4.489 4.489 0 0 1-.587.442c-.11.068-.273.16-.489.276-.424.099-.741.153-.953.163a1.172 1.172 0 0 1-.58-.089 1.081 1.081 0 0 1-.448-.354 1.419 1.419 0 0 1-.187-.437l-.053-.253Zm12.602-1.528c-.13.055-.266.088-.406.1a.85.85 0 0 1-.416-.07 5.868 5.868 0 0 0-.248-.292c-.073-.09-.094-.209-.063-.357a.984.984 0 0 0-.022-.418 1.413 1.413 0 0 1-.025-.431.113.113 0 0 0 .002-.054.158.158 0 0 1 .017-.043.661.661 0 0 0 .02-.282 2.303 2.303 0 0 1 .005-.292.892.892 0 0 0-.006-.158 12.157 12.157 0 0 0-.029-.258 19.557 19.557 0 0 1-.033-.284.751.751 0 0 0-.012-.183 1.395 1.395 0 0 0-.01-.103c-.02.03-.078.153-.175.367-.096.215-.205.458-.325.731-.122.264-.228.498-.318.703a.82.82 0 0 1-.032.099.43.43 0 0 0-.037.074c-.03.068-.054.126-.07.174-.019.039-.027.063-.025.071-.073.2-.175.412-.306.634-.133.213-.26.408-.383.584-.163.07-.301.09-.414.061a1.192 1.192 0 0 0-.387-.063l-.145-.18a5.18 5.18 0 0 0-.148-.194l-.008-.475c.003-.238 0-.502-.008-.791 0-.292-.012-.558-.036-.8a.589.589 0 0 0-.012-.116.418.418 0 0 0-.009-.104.114.114 0 0 0 .003-.053l-.011-.051a1.17 1.17 0 0 0-.023-.167.536.536 0 0 0-.04-.124l-.007-.038c-.004-.017-.01-.029-.021-.035-.12.44-.25.793-.389 1.061-.13.266-.256.509-.378.729-.1.197-.2.4-.299.605-.092.196-.197.39-.316.584a4.248 4.248 0 0 1-.227.312 3 3 0 0 1-.256.306.538.538 0 0 1-.153.284.528.528 0 0 1-.252.133.698.698 0 0 1-.438-.053c-.15-.074-.239-.178-.267-.313-.027-.127.007-.262.1-.405l.035-.087a.684.684 0 0 0 .02-.097l.458-.732c.182-.277.351-.547.509-.81a4.46 4.46 0 0 0 .331-.638l.11-.301c.053-.127.117-.264.193-.412.09-.204.188-.41.295-.618.106-.217.206-.414.301-.593.103-.19.18-.325.234-.407.088.034.178.06.27.075.099.005.191-.001.276-.02l.165.15c.062.04.128.08.199.117a.64.64 0 0 1 .282.324c.077.151.136.324.177.518.066.312.102.648.108 1.009.012.35.026.647.042.89a.621.621 0 0 0 .052-.13c.11-.279.218-.545.325-.797.107-.251.217-.486.33-.705.1-.206.2-.4.304-.58.102-.19.202-.37.3-.54.105-.172.212-.34.32-.504l.16-.246.187-.252c.079-.007.16-.02.246-.038.092-.029.18-.052.265-.07.098.04.18.068.244.08.063.004.149.008.256.012.024.11.058.208.103.296a.733.733 0 0 1 .077.3c.003.097.005.167.005.211a.514.514 0 0 1-.033.219c-.032.104-.05.266-.057.488-.008.214-.005.434.007.66.01.218.017.393.018.525.008.078.008.162 0 .252-.01.08-.034.174-.074.28.001.088.009.166.023.233a.382.382 0 0 1-.005.226l.013.063.011.05a.626.626 0 0 1 .038.178c.01.05.01.108-.004.173l.043.202c.018.04.054.104.107.19l-.115.209c-.039.07-.076.144-.113.222Zm2.974-.75a1.184 1.184 0 0 1-.263.081 2.572 2.572 0 0 1-.302.025c-.082-.01-.126-.026-.13-.052-.01-.042-.036-.058-.078-.05l-.162-.07a1.193 1.193 0 0 0-.29-.11 1.08 1.08 0 0 1-.24-.373c-.051-.157-.06-.446-.024-.868a2.126 2.126 0 0 1 .05-.897c.08-.334.2-.668.36-1.002.16-.334.337-.636.528-.906.19-.279.367-.493.531-.642a.702.702 0 0 1 .433-.29c.202-.052.389-.052.56 0a.943.943 0 0 1 .335.193c.129.105.255.219.38.342.122.115.22.222.295.321.045.087.084.167.117.24a.97.97 0 0 1 .105.242c.03.1.054.253.072.46-.01.162-.016.326-.016.494.007.157.027.316.061.476.018.164.059.274.124.33.074.056.16.042.258-.04a.392.392 0 0 1 .317-.081c.118.01.209.061.273.153.07.082.084.207.04.375a1.04 1.04 0 0 1-.176.368c-.09.125-.195.236-.317.332-.123.088-.249.146-.377.173a.49.49 0 0 1-.302-.042 1.183 1.183 0 0 1-.32-.249 2.14 2.14 0 0 1-.28-.377l-.139-.275-.37.516a6.27 6.27 0 0 1-.263.4 1.19 1.19 0 0 0-.148.242c-.027.085-.098.171-.213.257-.106.085-.25.186-.43.303Zm.086-1.289c.127-.115.229-.243.306-.383.086-.141.164-.295.236-.46.07-.173.146-.357.23-.551a3.53 3.53 0 0 0 .207-.534c.043-.132.067-.27.072-.412a1.85 1.85 0 0 0-.202-.261c-.083-.097-.155-.143-.216-.14-.12.026-.25.129-.389.308a3.972 3.972 0 0 0-.404.734c-.026.05-.054.126-.085.23a7.675 7.675 0 0 1-.097.298 2.74 2.74 0 0 1-.057.171c-.018.04-.04.128-.064.265-.017.127-.03.258-.037.392-.009.125-.008.213.003.264.01.05.026.104.048.161.03.056.08.085.151.087.072.002.172-.054.298-.169Zm5.161.265a4.178 4.178 0 0 1-.394.031.87.87 0 0 1-.39-.076.394.394 0 0 1-.223-.296 1.362 1.362 0 0 1-.027-.193.4.4 0 0 1 .028-.178.155.155 0 0 1 .018-.043l.02-.03-.052-.122a.654.654 0 0 1-.014-.13c.019-.118.023-.225.012-.32a1.52 1.52 0 0 1-.004-.33.114.114 0 0 0 .002-.053c-.003-.016-.002-.03.005-.04.013-.188.022-.38.025-.574.003-.195.03-.381.081-.56.089-.336.165-.67.228-1 .07-.342.135-.682.197-1.021a.621.621 0 0 1 .122-.304.365.365 0 0 1 .2-.122c.154-.033.323.006.506.117.182.103.331.217.447.342-.051.178-.11.363-.176.553a9.758 9.758 0 0 0-.19.556c-.059.18-.095.364-.109.553.121-.017.235-.046.342-.086a1.21 1.21 0 0 1 .345-.074c.147-.022.29-.061.43-.117.137-.065.275-.103.415-.115.002-.115.011-.263.026-.442a5.32 5.32 0 0 1 .076-.585c.037-.202.087-.385.15-.548.072-.165.159-.28.26-.346.126-.08.233-.098.323-.056.089.043.188.088.296.136.176.077.288.146.337.206.057.059.069.135.035.23-.026.086-.07.214-.131.386-.04.105-.064.22-.073.346a.973.973 0 0 1-.074.346 1.84 1.84 0 0 0-.053.25c-.016.135-.038.303-.067.503-.03.192-.056.387-.076.585-.022.19-.039.361-.05.514a6.904 6.904 0 0 0-.024.269l.02.34c.006.113.017.23.034.35.02.137-.002.243-.066.318a.51.51 0 0 1-.265.136 1.14 1.14 0 0 1-.643-.075.597.597 0 0 1-.197-.17.764.764 0 0 1-.089-.232 1.265 1.265 0 0 1-.007-.475l.065-.384c.002-.071.01-.14.023-.204.02-.074.031-.147.034-.218a4.283 4.283 0 0 0-.73.142c-.236.067-.474.14-.715.218-.03.112-.052.24-.065.384-.006.142-.01.293-.011.452.007.157.004.312-.008.464-.004.107-.013.21-.028.31a1.23 1.23 0 0 1-.05.263.866.866 0 0 1-.1.22Z"/></g><defs><clipPath id="a"><path fill="#fff" d="M0 10.396 48.907 0l8.317 39.126L8.316 49.522z"/></clipPath></defs></svg>