<svg xmlns="http://www.w3.org/2000/svg" width="117" height="109" fill="none"><g fill="#463530" clip-path="url(#a)"><path d="M33.174 93.017c-.49-.843-1-1.792-1.533-2.845l-.181.038c-.504.612-1.293 1.066-2.367 1.36a45.975 45.975 0 0 1-2.789.686l-.086-.418-.294-.049-.298.389-.043-.21c-.633-.014-1.255-.43-1.866-1.25-.685-.876-1.13-1.656-1.334-2.34.213-.19.305-.354.276-.494l-.13-.627c-.241.05-.34.033-.293-.049a3.663 3.663 0 0 0-.199-.504l.588.097c-.116-.558-.127-.919-.035-1.083l.35-1.054c.285.16.525.255.72.287l-.172-.836c.302-.063.43-.053.384.03.015.069.084-.054.207-.37l.139-.247c.423-.088.637-.422.643-1.005a.911.911 0 0 1-.155-.295c-.03-.14-.081-.238-.156-.295l.527-.654 1.2-.14-.021-.104a.328.328 0 0 1-.134-.19c-.03-.14.04-.263.207-.37.152-.177.245-.341.276-.493-.15-.115-.178-.254-.086-.418l.449.343-.043-.21c.273-.201.381-.442.324-.72l.008-.874.406.134c.135.044.233.06.294.048.181-.037.25-.16.207-.37a4.019 4.019 0 0 0-.082-.855c-.101-.488-.27-.998-.506-1.531a13.35 13.35 0 0 0-.44-1.218c.207-1.133.268-1.908.181-2.327-.058-.278-.154-.44-.29-.485-.149-.115-.253-.311-.31-.59-.043-.21-.04-.646.013-1.311-.392-.065-.64-.195-.743-.392a7.388 7.388 0 0 1-.104-.96c.138-.246.18-.655.125-1.225-.069-.64-.175-1.308-.32-2.005a21.175 21.175 0 0 0-.5-1.969c-.13-.627-.284-1.068-.463-1.322-.089-.127-.162-.33-.22-.608a3.564 3.564 0 0 1-.056-1.188c.034-.443-.09-.89-.372-1.34a3.198 3.198 0 0 1-.53-1.2 8.867 8.867 0 0 1-.183-2.252c.098-.747.05-1.282-.142-1.606-.285-.159-.609-.201-.972-.126a4.118 4.118 0 0 0-1.226.471c-.334.215-.69.324-1.067.33-.27-.09-.457-.233-.56-.43-.058-.278-.285-.305-.679-.078l.108.523a8.02 8.02 0 0 1-.591.34l-.726.15-1.27.262c-.437.018-.814.023-1.13.016l-.29-.485.052-.665.16-.142.543-.113c-.037-.792.015-1.457.156-1.994l.406.134.362-.075c-.132-.336-.221-.463-.267-.38l.228-.266c.375.286.645.375.812.268.153-.177.395-.227.726-.15l-.043-.209-.182.038c.184-.329.351-.436.501-.322.092-.164.094-.31.004-.437-.043-.209-.041-.355.005-.437.31.59.89.798 1.736.623.483-.1.96-.235 1.429-.404.455-.24.833-.39 1.135-.453a5.082 5.082 0 0 1-.293-2.338c.13-.899.182-1.71.16-2.432l-.066-.313a.786.786 0 0 0-.289-.486 1.347 1.347 0 0 1-.199-.504c-.043-.21-.017-.541.078-.997l-.272.056-.156-.295c.26-.272.303-.826.13-1.662a4.554 4.554 0 0 0-.285-.923L21.26 39l.726-.15-.108-.523c.046-.082.07-.269.073-.56-.21-.102-.33-.223-.358-.362-.03-.14-.02-.25.025-.333.107-.094.139-.246.095-.456-.043-.209-.252-.456-.626-.742.078-.234.125-.462.143-.684.063-.304.133-.573.211-.807-.3-.229-.5-.442-.604-.638a5.27 5.27 0 0 0-.264-.818l.726-.15-.398-1.008.501-.322c-.115-.558-.196-.795-.242-.713-.046.082-.158-.004-.337-.258l-.043-.209a1.994 1.994 0 0 1-.017-.541 3.593 3.593 0 0 0-.06-.751c-.243.05-.378.005-.407-.134l-.15-.732c.244-.342.284-.604.12-.788-.118-.267.072-.415.57-.445-.357-.508-.682-1.168-.976-1.98l.596-.777c-.256-.02-.46-.086-.61-.201a1.016 1.016 0 0 0-.47-.448c-.046.082-.5.322-1.364.718l-3.023 1.388a118.85 118.85 0 0 0-3.225 1.32c-1 .352-1.635.628-1.909.83a49.552 49.552 0 0 0-3.16 1.634c-1.031.504-2.151.88-3.36 1.13-.343-.438-.557-.866-.644-1.284-.52-.692-.927-1.59-1.217-2.692-.306-1.173-.507-2.149-.605-2.928l.388-.408c.23-.41.588-.666 1.071-.766.242-.05.46-.059.657-.027l.634-.13a.91.91 0 0 0 .026-.333c-.029-.14-.02-.25.026-.333.118.267.215.429.29.486.074.057.083-.054.025-.333.138-.246.298-.388.48-.426.178.254.328.369.449.344.12-.025.355-.11.703-.255-.118-.266-.168-.51-.15-.732l.932-.52.151.732c.726-.15 1.02-.247.885-.291-.15-.115-.072-.349.233-.703.107-.094.333-.068.678.078.331.077.61.056.838-.064.274-.202.48-.426.617-.672.185-.33.383-.588.596-.778l.238 1.15-.367.513a.912.912 0 0 1-.155-.295c-.03-.14-.083-.092-.16.142-.092.164-.133.427-.121.788a.694.694 0 0 0 .492.552c.156-.468.347-.762.574-.881a4.77 4.77 0 0 1 .842-.502c.179.254.35.473.514.657.225.172.426.385.605.639.17-.399.286-.75.35-1.054.048-.373.277-.639.686-.796a.602.602 0 0 0 .609.202c.302-.063.65-.207 1.045-.434.44-.31.894-.403 1.36-.281-.058-.279-.11-.377-.155-.295-.06.012.015-.076.228-.265.24.24.51.33.812.268.302-.063.583-.23.842-.501.32-.284.593-.486.82-.606.343.438.696.62 1.059.545.241-.05.446-.128.613-.236a1.54 1.54 0 0 1 .522-.217l-.151-.732c.317.008.664.009 1.04.003.438-.017.756-.155.955-.415.178.254.245.422.199.505l.315.152-.195-.94c.242-.05.717-.04 1.425.032.755-.01 1.155-.057 1.2-.139l-.038-.646.181-.038c.303-.062.482.046.54.325.104.197.285.16.544-.112l-.086-.418 2.858-.809.173.837c.288-.133.508-.287.66-.464.2-.259.525-.363.977-.31.117.266.298.374.54.324.302-.062.636-.277 1.001-.643.366-.366.632-.603.799-.71.103.197.193.323.268.38.074.058.157.15.246.277.394-.227.668-.429.82-.606.153-.177.434-.344.842-.5l.108.522c-.242.05-.515.252-.82.606l1.088-.225c.276-.493.612-.853 1.006-1.08.455-.24.924-.409 1.408-.509a8.54 8.54 0 0 1 1.381-.176c.498-.03.96-.09 1.382-.177l.13.628 1.632-.337c.363-.075.71-.074 1.04.003.317.007.64.195.968.563l.16-.142c-.015-.07.023-.04.112.086.317.007.948.168 1.896.48.993.232 1.571.44 1.736.623-.242.05-.53.183-.864.397l.043.21.726-.15c.092-.165.198-.26.32-.285a1.08 1.08 0 0 0 .228-.265c.029.14.027.285-.004.437.029.14.088.273.177.4.33.076.534.143.609.2.12-.024.262.201.423.677.36.216.581.68.665 1.389.07.64.207 1.156.415 1.55-.046.082-.13.135-.25.16-.061.013-.115.06-.16.142l.405.135c.136.044.24.095.316.152a4.516 4.516 0 0 0 .004 1.853c.176.545.2 1.122.074 1.73a6.354 6.354 0 0 1-.881 2.144l-1.105 1.973c-.317-.007-.506-.005-.566.008-.06.012-.127-.156-.199-.505.124-.316.225-.591.303-.825.138-.247.269-.528.392-.845.179.254.23.353.156.296-.015-.07.053-.048.203.067l-.087-.419c.093-.164.101-.275.026-.332-.029-.14-.02-.25.026-.333l.752-.482-.696-.62c.366-.366.478-1.043.337-2.032-.141-.988-.202-1.739-.182-2.252l-.09.019c-.121.025-.256-.02-.406-.134l-.45-.344c.032-.152.034-.297.005-.437a1.067 1.067 0 0 1 .004-.437c-.694-.002-1.393-.184-2.098-.548a8.91 8.91 0 0 0-2.052-.775c-.451-.052-1.138-.02-2.06.098a37.8 37.8 0 0 0-3.013.514c-1.874.387-3.764.85-5.67 1.389-1.845.526-3.146.94-3.903 1.242-.395.227-1.008.463-1.84.707-.846.175-1.618.407-2.314.696-.711.22-1.175.57-1.39 1.05a9.205 9.205 0 0 0-.173 3.743c.26 1.255.36 2.506.303 3.754-.003.292.011 1.124.043 2.499.017 1.305.04 2.79.07 4.456.075 1.584.12 3.028.138 4.333.017 1.304.062 2.131.134 2.48l-.224-.172-.022-.105c-.09-.126-.142-.08-.16.142l.087.419c.135.045.26.346.375.904.144.697.24 1.622.29 2.775.11 1.14.207 1.92.294 2.338l1.04.003.065.314a.916.916 0 0 0 .475.01c.303-.062.62-.2.954-.415l.58.971.5-.322c.153-.176.312-.319.48-.426.135.045.336.258.604.639.245-.341.488-.537.73-.587.241-.05.422.058.54.325a.885.885 0 0 0 .742.391c.317.008.521-.07.613-.235.093-.165.402-.192.929-.083l.13.627a5.095 5.095 0 0 1 1.066-.329c.12-.025.31-.028.566-.008l.216 1.046.272-.056c.138-.247.388-.408.75-.483.136.045.307.264.515.657.227-.119.401-.191.522-.216l.48-.426c.086.418.174.69.263.817.075.058.27.09.587.097.064-.304.102-.42.117-.351.06-.013.204-.079.432-.198.659.445 1.5.853 2.521 1.223 1.008.3 1.962.649 2.864 1.044.961.383 1.589.98 1.882 1.792l.182-.037-.087-.418c.3.228.531.435.696.62.164.183.335.402.514.656.44-.309.811-.495 1.113-.557a6.995 6.995 0 0 0 1.067-.33c-.026-.43.068-.74.28-.93.03.14.119.267.268.381-.057-.279-.04-.5.052-.665l.087.419.267.38c.093-.164.126-.462.1-.892l-.048.228c-.032.152-.092.164-.181.037l-.065-.314.138-.246.842-.501c.104.196.2.358.29.485.135.045.247.13.336.258l.501-.322a23.636 23.636 0 0 1-.013-.978c.003-.292.209-.516.617-.673.346.146.504.15.476.01.031-.151.093-.31.185-.474.3.23.51.331.63.306.303-.062.494-.356.575-.882.14-.538.557-.66 1.248-.367l-.108-.522.997-.206c.323.95.103 1.869-.66 2.753-.717.802-1.63 1.572-2.738 2.31a59.442 59.442 0 0 0-2.914 1.91c-.881.618-1.324 1.219-1.33 1.801.688.585 1.147 1.435 1.378 2.55.273 1.325.222 2.753-.155 4.285-.317 1.52-.729 2.73-1.235 3.635.07.64-.249 1.541-.954 2.705-.645 1.15-1.517 2.421-2.617 3.811a69.077 69.077 0 0 1-3.32 4.066c-1.189 1.264-2.248 2.39-3.178 3.383-.93.991-1.584 1.635-1.964 1.932a41.716 41.716 0 0 0-2.302 1.675c-.7.58-1.429 1.167-2.189 1.76-.44.31-.925.555-1.455.737-.53.182-.776.669-.738 1.46-.046.083-.04.263.017.542.058.279.153.587.285.923.147.405.272.707.376.903a1.582 1.582 0 0 1-1.002.643Zm-1.698-18.293c.049-.374.201-.55.457-.531l.726-.15c-.038-.792.044-1.463.246-2.013.178.253.298.374.358.362.107-.095.288-.132.544-.113-.011-.36.288-.895.898-1.603.67-.72 1.12-1.14 1.347-1.26l-.108-.522c.423-.088.734-.26.933-.52.26-.271.488-.537.686-.796l.424.676c-.084-.71.138-1.01.665-.9l-.108-.523.725-.15c.178-1.273.806-2.202 1.883-2.788.117.266.146.406.086.418l.406.135c-.055-.57.138-1.01.578-1.32.501-.32.972-.636 1.412-.945.487-.391.726-.913.717-1.566a.347.347 0 0 1 .246.277c.075.057.136.044.181-.038.58-.555.907-.95.985-1.184.138-.247.419-.414.842-.501l.453-.094c.242-.05.491-.065.747-.045l.164-.58c-.029-.139-.08-.237-.155-.294l-.268-.381c.27.09.551-.078.842-.501-.193-.324-.402-.571-.626-.743-.164-.184-.313-.444-.445-.78-.437.017-.745-.101-.924-.355a4.582 4.582 0 0 0-.445-.78c-1.148.237-2.18.123-3.096-.342a15.401 15.401 0 0 0-2.975-1.13c-.196-.032-.408.012-.635.131-.167.107-.379.151-.635.131-1.793-.138-3.61-.235-5.45-.291a33.002 33.002 0 0 0-5.475.04c.205.685.288 1.395.251 2.129.009.652-.006 1.346-.043 2.08-.046.083-.004.438.125 1.065l.432 2.091.216 1.046c.072.349.1.634.082.855-.008.874.093 2.126.303 3.754.21 1.629.45 3.25.722 4.867.256 1.546.508 2.766.756 3.66l.181-.038a.905.905 0 0 1 .458-.53c.057.278.056.424-.005.436-.06.013.045.064.316.154Zm.886 8.866c.32-.284.571-.59.755-.919.245-.341.497-.648.756-.92.178.254.26.346.246.277-.014-.07.114-.06.384.03l-.31-.59.18-.038.36.362a.912.912 0 0 0 .025-.332c-.029-.14-.02-.25.026-.333.196.032.354.036.475.011a.916.916 0 0 1 .475.011c-.072-.349-.07-.64.008-.874.179.254.329.368.45.343l.544-.112.051-.665c.018-.221.095-.456.233-.702.03.14.118.266.268.38-.057-.278-.04-.5.052-.664l.268.38c.063-.303.065-.449.004-.436-.06.012.023-.042.25-.161l.61.201c-.087-.418-.038-.792.146-1.12l.151.732.544-.113a3.746 3.746 0 0 1-.237-1.15.916.916 0 0 0 .475.01 3.01 3.01 0 0 0 .794-.272c.118.266.147.406.087.418-.015-.07.076-.088.272-.056a2.391 2.391 0 0 1-.013-.979l.816-.168-.151-.732 1.243-2.22c.196.032.361.071.497.116l.362-.075c.182-.038.405-.484.67-1.338.512.04.965-.054 1.36-.28.049-.374.074-.707.077-.998a23.641 23.641 0 0 1-.013-.979c.377-.005.619-.055.726-.15.152-.177.266-.236.34-.18l-.043-.208.07-.123c.092-.165.123-.317.095-.456a2.303 2.303 0 0 1-.04-.646c.242-.05.38-.151.41-.303.079-.234.156-.469.234-.703l.609.202c.12-.025.31-.028.566-.008l-.087-.418c-.27-.09-.368-.106-.294-.049.121-.025.153-.177.095-.456a2.17 2.17 0 0 0 .458-.53c.153-.177.357-.255.613-.236-.04-.5.002-.909.125-1.225.11-.386.144-.83.104-1.33l.648-1.442c.215-.48.296-1.006.241-1.576-.363.075-.754.01-1.174-.194a19.872 19.872 0 0 1-4.09 4.007c-1.534 1.116-2.852 2.515-3.954 4.197l-2.163 1.428c-.216.48-.668 1.191-1.356 2.133a18.233 18.233 0 0 1-2.22 2.53c-.791.745-1.436 1.133-1.934 1.163l.151.732-.453.094.108.523c-.44.309-.852.757-1.235 1.345a8.548 8.548 0 0 1-1.053 1.308l.475 2.3c-.064.304-.08.526-.052.665.057.28.183.58.376.904.239.241.41.46.514.657Zm-5.143 3.025c.665-.137 1.067-.33 1.205-.576.198-.259.374-.477.527-.654.212-.19.582-.23 1.11-.12l-.066-.314c-.043-.209-.033-.465.03-.77.05-.373-.03-.756-.237-1.15-.133-.336-.266-.526-.402-.57-.075-.058-.193-.324-.354-.8l-.634.131c-.003.291-.035.444-.096.456-.014-.07-.046.082-.095.456l-1.135.452c.1.488-.032.916-.397 1.282-.38.296-.753.628-1.119.994-.365.366-.513.87-.444 1.51l.363-.076c.302-.062.611-.09.928-.082l.816-.169ZM55.133 83.388c-.225.047-.416.034-.575-.037a9.854 9.854 0 0 1-.553-.322 5.848 5.848 0 0 1-1.068-1.118c-.285-.42-.436-.804-.454-1.153.019-.17.005-.323-.04-.459l-.05-.239c-.107-.081-.145-.136-.115-.163a.716.716 0 0 0 .066-.2c.104-.022.116-.139.036-.35-.067-.153-.085-.502-.054-1.049a7.8 7.8 0 0 1 .307-1.652c.062-.22.164-.511.306-.873.137-.381.294-.756.47-1.125a7.4 7.4 0 0 1 .533-.951c.345-.508.672-.928.982-1.262a3.77 3.77 0 0 1 1.029-.773c.359-.178.737-.309 1.134-.39.415-.086.785.003 1.11.269.438.117.77.329.995.635.243.303.446.718.609 1.245.175.587.275 1.335.301 2.243.021.889-.196 1.972-.652 3.25-.284.806-.592 1.452-.924 1.936a10.53 10.53 0 0 1-1.145 1.389 2.525 2.525 0 0 1-1.061.748c-.402.146-.798.28-1.187.401Zm1.89-4.19c.302-.458.483-.931.544-1.421.078-.494.148-1.07.21-1.726.045-.134.047-.342.007-.624a4.339 4.339 0 0 0-.141-.813c-.075-.275-.168-.422-.28-.44-.184-.108-.346-.105-.485.007-.143.091-.315.262-.516.511a11.22 11.22 0 0 0-1.093 2.033c-.3.726-.44 1.576-.419 2.547.051.51.173.878.364 1.109.205.207.461.227.769.06.32-.192.667-.606 1.04-1.244Zm4.614.199a4.155 4.155 0 0 1 .002-.78c.02-.336.047-.642.08-.92.046-.3.078-.493.096-.58.122-.544.21-1.071.268-1.582.074-.513.126-1.002.156-1.465l.052-.665c.042-.32.077-.629.106-.925.025-.317.024-.535 0-.654-.038-.532.033-.931.212-1.197a1.68 1.68 0 0 1 .73-.649c.233-.007.44.034.62.121.175.068.367.163.572.287.175.15.296.385.361.704.062.299.07.733.027 1.303a16 16 0 0 1-.154 1.216c-.066.47-.141.932-.227 1.386-.07.45-.12.814-.153 1.091-.07.534-.132 1.107-.185 1.72-.058.594-.1 1.09-.125 1.49-.02.254.08.389.3.406.185.024.369-.004.55-.083.2-.082.394-.185.585-.307a22.31 22.31 0 0 0 1.154-.955c.005-.147.018-.347.038-.6.037-.257.08-.619.127-1.085.065-.47.131-1.108.2-1.91.024-.317.05-.624.08-.92l.079-.796c.023-.233.04-.413.05-.54l.04-.195c-.092-.625-.076-1.2.05-1.724.122-.544.321-.928.6-1.152.25-.093.438-.142.563-.147.139-.029.302.02.49.148.412.247.661.455.75.624.102.145.192.406.27.785a1.502 1.502 0 0 0-.056.51c.006.206-.028.432-.104.676-.07.18-.126.347-.166.501a.804.804 0 0 0-.016.315l-.281 2.301a64.96 64.96 0 0 0-.121 1.115l-.078.67.305-.093c.224-.047.46-.085.706-.115.242-.05.553.02.935.212.047-.03.129.056.243.261.132.201.248.416.349.644.114.205.184.326.21.362a7.4 7.4 0 0 1-.034 1.409c-.06.49-.147.986-.26 1.487a13.22 13.22 0 0 1-.344 1.473c-.04.153-.093.289-.159.406-.044.134-.113.325-.206.572-.16.532-.424.825-.79.88-.35.052-.716-.153-1.1-.614a4.68 4.68 0 0 1-.153-.872c-.015-.246-.002-.664.038-1.254.006-.146.039-.381.098-.705.076-.327.144-.653.203-.977.073-.347.096-.58.072-.7a.59.59 0 0 1-.112.117.673.673 0 0 0-.156.157c-.07.097-.166.2-.288.308a5.065 5.065 0 0 0-.359.355 7.884 7.884 0 0 0-.339.319 8.46 8.46 0 0 1-.834.67c-.22.15-.548.353-.982.609-.86.198-1.504.3-1.935.306a2.189 2.189 0 0 1-1.187-.253 2.507 2.507 0 0 1-.936-.866 3.827 3.827 0 0 1-.403-1.038l-.124-.598Zm25.63-2.584a2.374 2.374 0 0 1-.823.201 1.594 1.594 0 0 1-.852-.197 14.577 14.577 0 0 0-.523-.702c-.153-.218-.202-.498-.147-.842.038-.34.015-.668-.068-.983a3.835 3.835 0 0 1-.074-1.013.303.303 0 0 0 .001-.125.37.37 0 0 1 .034-.1c.05-.197.058-.417.025-.66a6.242 6.242 0 0 1-.006-.684 2.428 2.428 0 0 0-.022-.369c-.02-.183-.043-.386-.072-.608-.032-.243-.06-.465-.084-.668a2.04 2.04 0 0 0-.034-.43 3.813 3.813 0 0 0-.024-.243c-.04.07-.152.353-.338.848-.185.495-.393 1.057-.624 1.687-.234.609-.438 1.15-.61 1.621a2.046 2.046 0 0 1-.06.23c-.027.047-.051.105-.073.171a5.855 5.855 0 0 0-.134.402.467.467 0 0 0-.047.165 9.026 9.026 0 0 1-.59 1.462c-.258.49-.508.936-.75 1.338-.328.151-.609.188-.84.112-.22-.1-.484-.16-.794-.18l-.306-.434c-.106-.165-.21-.32-.312-.465l-.04-1.113a55.02 55.02 0 0 0-.06-1.857 21.146 21.146 0 0 0-.118-1.876 1.6 1.6 0 0 0-.03-.275 1.14 1.14 0 0 0-.023-.244.303.303 0 0 0 .001-.125l-.024-.12a3.25 3.25 0 0 0-.054-.393 1.464 1.464 0 0 0-.088-.294l-.019-.09c-.008-.039-.023-.067-.044-.084-.221 1.022-.466 1.841-.735 2.458a37.239 37.239 0 0 1-.734 1.678c-.194.455-.386.92-.576 1.396a13.3 13.3 0 0 1-.614 1.342c-.132.235-.28.473-.447.715-.149.239-.317.47-.505.696-.05.28-.149.498-.297.653a.96.96 0 0 1-.507.292c-.293.06-.593.008-.897-.157-.308-.186-.495-.438-.561-.757-.062-.298 0-.612.183-.941l.067-.2c.018-.088.03-.163.035-.226.259-.49.557-1.05.895-1.68.356-.634.687-1.253.994-1.857.308-.603.522-1.094.642-1.472.054-.177.123-.41.207-.697.102-.29.226-.607.371-.949.173-.471.363-.947.57-1.426.203-.499.397-.954.582-1.366.199-.436.35-.748.456-.935.18.087.365.153.553.197.203.02.39.013.563-.023l.346.365c.128.098.265.194.41.289.249.156.447.416.594.78.165.361.294.77.389 1.229.152.737.243 1.528.274 2.373.044.822.088 1.518.134 2.09a.47.47 0 0 0 .053-.135c.023-.067.038-.122.047-.165.21-.646.416-1.26.62-1.842a22.98 22.98 0 0 1 .636-1.626c.19-.476.386-.921.588-1.337.199-.436.392-.85.581-1.241.207-.396.416-.782.626-1.158l.316-.563.367-.575a3.93 3.93 0 0 0 .499-.072c.186-.059.365-.106.537-.142.202.104.37.173.503.208.129.015.303.03.523.048.053.259.129.492.226.7.097.21.155.446.174.712.01.227.017.391.02.495.021.1.002.27-.056.51s-.088.62-.089 1.14c-.005.499.012 1.015.05 1.547.034.512.055.923.065 1.233.02.182.024.379.014.589-.015.19-.06.407-.136.65.007.207.026.39.06.55.046.135.046.311 0 .528l.032.15.024.12c.046.135.075.275.087.418.024.12.025.254.002.404l.099.478c.038.096.114.247.228.451l-.224.483a9.025 9.025 0 0 0-.219.512Zm6.026-1.525a2.07 2.07 0 0 1-.532.172 4.535 4.535 0 0 1-.614.034c-.168-.028-.258-.072-.27-.131-.02-.1-.074-.14-.16-.123l-.335-.18a2.406 2.406 0 0 0-.598-.282 2.815 2.815 0 0 1-.509-.891c-.112-.372-.144-1.05-.096-2.037-.114-.64-.097-1.34.053-2.098.145-.777.373-1.551.682-2.321.309-.77.652-1.464 1.029-2.082.372-.638.722-1.125 1.048-1.463.184-.328.473-.544.866-.646.41-.105.792-.09 1.144.044.193.064.424.224.693.48.27.256.534.534.794.833.255.28.462.538.62.776.096.208.18.398.252.57.085.15.16.341.227.577.067.235.124.597.17 1.086-.012.376-.013.76-.004 1.154.022.369.072.743.15 1.121.044.386.134.648.27.785.154.135.33.11.525-.077a.694.694 0 0 1 .641-.163c.242.033.43.16.566.381.148.198.182.492.101.883-.05.28-.163.563-.338.849a3.332 3.332 0 0 1-.628.752c-.248.197-.501.322-.76.375-.19.04-.397-.001-.62-.121a2.727 2.727 0 0 1-.666-.61 5.454 5.454 0 0 1-.592-.906l-.297-.655-.73 1.179c-.166.325-.337.63-.513.916-.162.262-.258.448-.29.558-.049.197-.189.392-.419.585-.213.19-.5.415-.86.676Zm.107-3.013c.253-.26.454-.55.604-.872.167-.325.319-.678.456-1.06.133-.401.28-.826.439-1.274.199-.519.33-.93.394-1.234.08-.307.122-.628.125-.96a4.692 4.692 0 0 0-.427-.63c-.174-.233-.324-.348-.449-.343-.242.05-.5.28-.776.69-.258.407-.52.97-.785 1.69a3.676 3.676 0 0 0-.16.53c-.06.241-.12.472-.182.692-.05.197-.085.33-.107.396-.036.09-.074.296-.116.616-.029.297-.047.602-.055.915-.011.293-.004.5.02.619.025.12.06.247.106.383a.357.357 0 0 0 .315.215c.146.011.346-.113.598-.373Zm10.544 1.031c-.229.027-.496.04-.802.041a1.64 1.64 0 0 1-.799-.208c-.245-.137-.402-.374-.472-.713a3.6 3.6 0 0 1-.066-.454 1.02 1.02 0 0 1 .049-.415.37.37 0 0 1 .033-.1l.04-.07-.114-.288a1.92 1.92 0 0 1-.036-.305c.033-.276.036-.526.008-.749a4.085 4.085 0 0 1-.025-.773.31.31 0 0 0 .001-.125c-.008-.04-.006-.072.008-.095.017-.44.023-.888.019-1.344a5.602 5.602 0 0 1 .136-1.305c.163-.782.299-1.558.41-2.328.125-.794.24-1.586.347-2.377.042-.32.12-.554.233-.702a.677.677 0 0 1 .403-.27c.311-.065.657.04 1.038.315.377.254.686.533.929.836-.095.414-.204.842-.329 1.283-.129.421-.248.85-.355 1.288a5.82 5.82 0 0 0-.194 1.286c.246-.03.477-.088.693-.174.217-.086.45-.134.7-.145.298-.04.587-.12.868-.241.277-.14.558-.22.843-.237-.002-.27.008-.614.03-1.034.017-.44.058-.894.123-1.365a7.69 7.69 0 0 1 .277-1.272c.138-.381.308-.645.512-.791.252-.177.47-.212.654-.104.184.107.388.221.611.341.364.195.597.365.699.51.12.141.148.322.086.543-.05.197-.132.495-.248.892a3.136 3.136 0 0 0-.131.806 2.48 2.48 0 0 1-.131.806c-.022.067-.054.26-.096.58a50.22 50.22 0 0 1-.108 1.175c-.052.447-.093.902-.124 1.366-.034.443-.06.843-.076 1.2-.02.336-.031.545-.032.629l.057.798c.019.266.048.54.089.823.048.322.009.569-.117.74a.93.93 0 0 1-.533.297c-.225.047-.46.043-.705-.01a2.227 2.227 0 0 1-.612-.216 1.402 1.402 0 0 1-.409-.414 2.065 2.065 0 0 1-.195-.551 3.389 3.389 0 0 1-.041-1.114c.047-.383.084-.681.112-.895.001-.166.014-.325.037-.475.036-.174.055-.344.057-.51-.496.04-.991.132-1.483.275-.476.14-.958.291-1.446.454a6.27 6.27 0 0 0-.112.896c-.004.333-.003.686.002 1.059.022.369.025.732.009 1.088a8.03 8.03 0 0 1-.04.725c-.01.21-.04.413-.09.61a2.047 2.047 0 0 1-.192.507Z"/></g><defs><clipPath id="a"><path fill="#fff" d="M0 20.228 97.933 0l18.205 88.14-97.933 20.228z"/></clipPath></defs></svg>