<svg aria-hidden="true" style="position: absolute; width: 0; height: 0; overflow: hidden;" version="1.1" xmlns="http://www.w3.org/2000/svg" xmlns:xlink="http://www.w3.org/1999/xlink">
<defs>
<symbol id="icon-burger-menu" viewBox="0 0 32 32">
<path d="M26.734 14.666h-21.467c-0.699 0-1.266 0.568-1.266 1.267v0.133c0 0.7 0.567 1.267 1.266 1.267h21.467c0.699 0 1.266-0.568 1.266-1.267v-0.133c0-0.7-0.567-1.267-1.266-1.267zM26.734 21.334h-21.467c-0.698 0-1.266 0.566-1.266 1.266v0.134c0 0.698 0.567 1.266 1.266 1.266h21.467c0.698 0 1.266-0.567 1.266-1.266v-0.134c0-0.7-0.567-1.266-1.266-1.266zM26.734 8h-21.467c-0.698 0-1.266 0.567-1.266 1.266v0.134c0 0.699 0.567 1.266 1.266 1.266h21.467c0.699 0 1.266-0.567 1.266-1.266v-0.134c0-0.698-0.567-1.266-1.266-1.266z"></path>
</symbol>
<symbol id="icon-arrow-r" viewBox="0 0 32 32">
<path d="M27.152 16.943c0.241-0.241 0.391-0.575 0.391-0.943s-0.149-0.702-0.391-0.943l-7.542-7.542c-0.241-0.241-0.575-0.391-0.943-0.391-0.736 0-1.334 0.597-1.334 1.333 0 0.368 0.149 0.702 0.391 0.943v0l5.267 5.266h-17.658c-0.736 0-1.333 0.597-1.333 1.333s0.597 1.333 1.333 1.333v0h17.658l-5.267 5.267c-0.231 0.239-0.374 0.566-0.374 0.926 0 0.736 0.597 1.333 1.333 1.333 0.36 0 0.687-0.143 0.927-0.375l-0 0 7.541-7.542z"></path>
</symbol>
<symbol id="icon-arrow-l" viewBox="0 0 32 32">
<path d="M4.848 15.057c-0.241 0.241-0.391 0.575-0.391 0.943s0.149 0.702 0.391 0.943l7.542 7.542c0.243 0.251 0.583 0.407 0.959 0.407 0.736 0 1.333-0.597 1.333-1.333 0-0.376-0.156-0.716-0.406-0.958l-0-0-5.267-5.267h17.658c0.736 0 1.333-0.597 1.333-1.333s-0.597-1.333-1.333-1.333v0h-17.658l5.267-5.267c0.231-0.239 0.374-0.566 0.374-0.926 0-0.736-0.597-1.333-1.333-1.333-0.36 0-0.687 0.143-0.927 0.375l0-0-7.541 7.542z"></path>
</symbol>
</defs>
</svg>
