<svg aria-hidden="true" style="position: absolute; width: 0; height: 0; overflow: hidden;" version="1.1" xmlns="http://www.w3.org/2000/svg" xmlns:xlink="http://www.w3.org/1999/xlink">
<defs>
<symbol id="icon-burger-menu" viewBox="0 0 32 32">
<path d="M26.734 14.666h-21.467c-0.699 0-1.266 0.568-1.266 1.267v0.133c0 0.7 0.567 1.267 1.266 1.267h21.467c0.699 0 1.266-0.568 1.266-1.267v-0.133c0-0.7-0.567-1.267-1.266-1.267zM26.734 21.334h-21.467c-0.698 0-1.266 0.566-1.266 1.266v0.134c0 0.698 0.567 1.266 1.266 1.266h21.467c0.698 0 1.266-0.567 1.266-1.266v-0.134c0-0.7-0.567-1.266-1.266-1.266zM26.734 8h-21.467c-0.698 0-1.266 0.567-1.266 1.266v0.134c0 0.699 0.567 1.266 1.266 1.266h21.467c0.699 0 1.266-0.567 1.266-1.266v-0.134c0-0.698-0.567-1.266-1.266-1.266z"></path>
</symbol>
<symbol id="icon-arrow-r" viewBox="0 0 30 30">
<path d="M27.152 16.943c0.241-0.241 0.391-0.575 0.391-0.943s-0.149-0.702-0.391-0.943l-7.542-7.542c-0.241-0.241-0.575-0.391-0.943-0.391-0.736 0-1.334 0.597-1.334 1.333 0 0.368 0.149 0.702 0.391 0.943v0l5.267 5.266h-17.658c-0.736 0-1.333 0.597-1.333 1.333s0.597 1.333 1.333 1.333v0h17.658l-5.267 5.267c-0.231 0.239-0.374 0.566-0.374 0.926 0 0.736 0.597 1.333 1.333 1.333 0.36 0 0.687-0.143 0.927-0.375l-0 0 7.541-7.542z"></path>
</symbol>
<symbol id="icon-arrow-l" viewBox="0 0 30 30">
<path d="M4.848 15.057c-0.241 0.241-0.391 0.575-0.391 0.943s0.149 0.702 0.391 0.943l7.542 7.542c0.243 0.251 0.583 0.407 0.959 0.407 0.736 0 1.333-0.597 1.333-1.333 0-0.376-0.156-0.716-0.406-0.958l-0-0-5.267-5.267h17.658c0.736 0 1.333-0.597 1.333-1.333s-0.597-1.333-1.333-1.333v0h-17.658l5.267-5.267c0.231-0.239 0.374-0.566 0.374-0.926 0-0.736-0.597-1.333-1.333-1.333-0.36 0-0.687 0.143-0.927 0.375l0-0-7.541 7.542z"></path>
</symbol>
<symbol id="icon-phone" viewBox="0 0 32 32">
<path d="M11.142 2.286c-1.736 0-3.142 1.407-3.142 3.142v0 21.142c0 1.736 1.407 3.142 3.142 3.142v0h9.715c1.736 0 3.142-1.407 3.142-3.142v0-21.142c-0.001-1.735-1.407-3.142-3.142-3.142h-9.715zM9.714 5.429c0-0.789 0.64-1.429 1.429-1.429h9.715c0.789 0 1.429 0.64 1.429 1.429v21.142c0 0.789-0.64 1.429-1.429 1.429h-9.715c-0.789 0-1.429-0.64-1.429-1.429v0-21.142zM14 24c-0.457 0.020-0.821 0.396-0.821 0.857s0.363 0.836 0.819 0.857l0.002 0h4c0.011 0 0.024 0.001 0.037 0.001 0.474 0 0.858-0.384 0.858-0.858s-0.384-0.858-0.858-0.858c-0.013 0-0.026 0-0.039 0.001l0.002-0h-4z"></path>
</symbol>
<symbol id="icon-facebook" viewBox="0 0 32 32">
<path d="M18.667 18h3.333l1.333-5.333h-4.667v-2.667c0-1.373 0-2.667 2.667-2.667h2v-4.48c-0.435-0.057-2.076-0.187-3.809-0.187-3.62 0-6.191 2.209-6.191 6.267v3.733h-4v5.333h4v11.333h5.333v-11.333z"></path>
</symbol>
<symbol id="icon-telegram" viewBox="0 0 35 32">
<path d="M30.124 4.873s2.825-1.009 2.589 1.443c-0.077 1.009-0.785 4.545-1.334 8.368l-1.884 11.327s-0.157 1.66-1.571 1.949c-1.411 0.288-3.532-1.011-3.924-1.299-0.313-0.218-5.887-3.463-7.849-5.050-0.548-0.433-1.178-1.299 0.079-2.308l8.241-7.215c0.943-0.865 1.884-2.886-2.041-0.433l-10.988 6.854s-1.257 0.721-3.612 0.073l-5.101-1.443s-1.884-1.082 1.334-2.164c7.849-3.391 17.504-6.854 26.060-10.1z"></path>
</symbol>
<symbol id="icon-instagram" viewBox="0 0 32 32">
<path d="M16 0c-4.349 0-4.89 0.020-6.593 0.093-1.709 0.084-2.865 0.349-3.884 0.745-1.109 0.425-2.054 1.054-2.832 1.847l-0.001 0.001c-0.797 0.778-1.426 1.723-1.831 2.78l-0.018 0.053c-0.397 1.020-0.662 2.176-0.746 3.884-0.077 1.706-0.093 2.247-0.093 6.596s0.022 4.89 0.093 6.592c0.084 1.705 0.349 2.865 0.746 3.885 0.403 1.068 1.033 2.035 1.847 2.833 0.778 0.797 1.723 1.426 2.78 1.831l0.053 0.018c1.021 0.391 2.182 0.662 3.885 0.745 1.703 0.077 2.244 0.093 6.593 0.093s4.892-0.020 6.593-0.093c1.703-0.083 2.865-0.355 3.884-0.745 1.109-0.425 2.054-1.054 2.832-1.847l0.001-0.001c0.799-0.777 1.429-1.723 1.832-2.781l0.018-0.053c0.39-1.020 0.66-2.182 0.745-3.884 0.077-1.703 0.093-2.244 0.093-6.593s-0.022-4.892-0.093-6.593c-0.084-1.705-0.355-2.871-0.745-3.885-0.426-1.109-1.055-2.054-1.849-2.832l-0.001-0.001c-0.777-0.797-1.722-1.426-2.779-1.83l-0.053-0.018c-1.020-0.397-2.182-0.662-3.885-0.746-1.703-0.080-2.244-0.095-6.593-0.095zM16 2.88c4.271 0 4.781 0.020 6.468 0.093 1.558 0.073 2.406 0.333 2.969 0.553 0.723 0.271 1.339 0.679 1.843 1.196l0.001 0.001c0.529 0.516 0.937 1.145 1.193 1.839 0.218 0.563 0.48 1.411 0.553 2.967 0.071 1.689 0.092 2.201 0.092 6.47 0 4.271-0.020 4.781-0.099 6.47-0.083 1.556-0.343 2.404-0.563 2.967-0.303 0.752-0.64 1.277-1.199 1.844-0.507 0.515-1.122 0.921-1.81 1.181l-0.035 0.012c-0.556 0.218-1.415 0.48-2.979 0.553-1.696 0.073-2.196 0.093-6.479 0.093s-4.781-0.022-6.48-0.099c-1.556-0.084-2.416-0.345-2.979-0.563-0.721-0.274-1.335-0.682-1.839-1.199l-0.001-0.001c-0.523-0.502-0.931-1.119-1.185-1.811l-0.011-0.033c-0.224-0.556-0.48-1.415-0.564-2.979-0.057-1.677-0.083-2.196-0.083-6.458 0-4.26 0.026-4.781 0.083-6.48 0.084-1.562 0.34-2.42 0.564-2.979 0.276-0.761 0.634-1.28 1.196-1.843 0.5-0.525 1.116-0.935 1.807-1.189l0.033-0.011c0.563-0.218 1.401-0.479 2.964-0.557 1.696-0.060 2.196-0.083 6.473-0.083l0.065 0.047zM16 7.788c-0.002 0-0.004 0-0.006 0-4.534 0-8.209 3.675-8.209 8.209 0 1.135 0.23 2.217 0.647 3.2l-0.020-0.054c1.266 3.001 4.183 5.069 7.584 5.069 0.002 0 0.003 0 0.005 0h-0c0.002 0 0.004 0 0.007 0 4.535 0 8.211-3.676 8.211-8.211 0-2.27-0.921-4.325-2.41-5.811l-0-0c-1.485-1.484-3.536-2.401-5.801-2.401-0.002 0-0.005 0-0.007 0h0zM16 21.332c-0.001 0-0.002 0-0.003 0-2.943 0-5.329-2.386-5.329-5.329 0-0.001 0-0.002 0-0.003v0c0-0.001 0-0.002 0-0.003 0-2.943 2.386-5.329 5.329-5.329 0.001 0 0.002 0 0.003 0h-0c0.001 0 0.002 0 0.003 0 2.943 0 5.329 2.386 5.329 5.329 0 0.001 0 0.002 0 0.003v-0c0 0.001 0 0.002 0 0.003 0 2.943-2.386 5.329-5.329 5.329-0.001 0-0.002 0-0.003 0h0zM26.464 7.459c-0.007 1.057-0.865 1.911-1.923 1.911-0.792 0-1.472-0.479-1.767-1.163l-0.005-0.012c-0.092-0.217-0.145-0.469-0.145-0.733 0-1.059 0.858-1.918 1.917-1.92h0c1.057 0 1.923 0.86 1.923 1.917z"></path>
</symbol>

</defs>
</svg>
