<svg aria-hidden="true" style="position: absolute; width: 0; height: 0; overflow: hidden;" version="1.1" xmlns="http://www.w3.org/2000/svg" xmlns:xlink="http://www.w3.org/1999/xlink">
<defs>
<symbol id="icon-burger-menu" viewBox="0 0 32 32">
<path d="M26.734 14.666h-21.467c-0.699 0-1.266 0.568-1.266 1.267v0.133c0 0.7 0.567 1.267 1.266 1.267h21.467c0.699 0 1.266-0.568 1.266-1.267v-0.133c0-0.7-0.567-1.267-1.266-1.267zM26.734 21.334h-21.467c-0.698 0-1.266 0.566-1.266 1.266v0.134c0 0.698 0.567 1.266 1.266 1.266h21.467c0.698 0 1.266-0.567 1.266-1.266v-0.134c0-0.7-0.567-1.266-1.266-1.266zM26.734 8h-21.467c-0.698 0-1.266 0.567-1.266 1.266v0.134c0 0.699 0.567 1.266 1.266 1.266h21.467c0.699 0 1.266-0.567 1.266-1.266v-0.134c0-0.698-0.567-1.266-1.266-1.266z"></path>
</symbol>
</defs>
</svg>
